<svg width="55" height="54" viewBox="0 0 55 54" fill="none" xmlns="http://www.w3.org/2000/svg">
<rect x="0.5" width="54" height="54" rx="12" fill="white"/>
<rect x="1" y="0.5" width="53" height="53" rx="11.5" stroke="#0A0F0F" stroke-opacity="0.1"/>
<path d="M37.9407 34.227C37.5494 35.131 37.0862 35.9631 36.5496 36.7281C35.8181 37.7711 35.2191 38.493 34.7575 38.8939C34.042 39.5519 33.2754 39.8889 32.4544 39.9081C31.8651 39.9081 31.1543 39.7404 30.327 39.4002C29.4969 39.0616 28.7341 38.8939 28.0366 38.8939C27.3051 38.8939 26.5206 39.0616 25.6815 39.4002C24.841 39.7404 24.164 39.9177 23.6463 39.9353C22.8591 39.9688 22.0744 39.6222 21.2911 38.8939C20.7912 38.4579 20.1659 37.7104 19.4169 36.6515C18.6132 35.5207 17.9524 34.2094 17.4348 32.7144C16.8804 31.0997 16.6025 29.5361 16.6025 28.0223C16.6025 26.2882 16.9772 24.7926 17.7277 23.5393C18.3175 22.5326 19.1022 21.7385 20.0843 21.1555C21.0664 20.5726 22.1276 20.2755 23.2704 20.2565C23.8957 20.2565 24.7156 20.4499 25.7346 20.83C26.7508 21.2114 27.4032 21.4049 27.6893 21.4049C27.9031 21.4049 28.6279 21.1787 29.8566 20.7278C31.0186 20.3097 31.9992 20.1366 32.8026 20.2048C34.9796 20.3804 36.6151 21.2386 37.7027 22.7847C35.7558 23.9643 34.7927 25.6166 34.8119 27.7362C34.8294 29.3872 35.4284 30.7611 36.6055 31.852C37.1389 32.3583 37.7347 32.7496 38.3975 33.0275C38.2538 33.4444 38.102 33.8436 37.9407 34.227ZM32.948 14.5801C32.948 15.8742 32.4752 17.0824 31.5329 18.2008C30.3957 19.5303 29.0202 20.2985 27.5286 20.1773C27.5096 20.022 27.4986 19.8586 27.4986 19.6869C27.4986 18.4447 28.0394 17.1152 28.9997 16.0281C29.4792 15.4778 30.089 15.0201 30.8285 14.6551C31.5664 14.2954 32.2644 14.0966 32.9208 14.0625C32.94 14.2355 32.948 14.4085 32.948 14.5801V14.5801Z" fill="#0A0F0F"/>
</svg>
