<svg width="18" height="10" viewBox="0 0 18 10" fill="none" xmlns="http://www.w3.org/2000/svg">
<path d="M8.46896 9.00052L0.968956 1.50053C0.899275 1.43084 0.844 1.34812 0.806288 1.25707C0.768576 1.16603 0.749165 1.06845 0.749165 0.9699C0.749165 0.871354 0.768576 0.773773 0.806288 0.682728C0.844 0.591683 0.899275 0.508957 0.968956 0.439275C1.03864 0.369592 1.12136 0.314317 1.21241 0.276605C1.30345 0.238893 1.40104 0.219483 1.49958 0.219483C1.59813 0.219483 1.69571 0.238893 1.78675 0.276605C1.8778 0.314317 1.96052 0.369592 2.03021 0.439275L8.99958 7.40959L15.969 0.439274C16.1097 0.298544 16.3006 0.219482 16.4996 0.219482C16.6986 0.219482 16.8895 0.298544 17.0302 0.439274C17.1709 0.580005 17.25 0.770876 17.25 0.969899C17.25 1.16892 17.1709 1.35979 17.0302 1.50052L9.53021 9.00052C9.46055 9.07026 9.37784 9.12558 9.28679 9.16332C9.19574 9.20106 9.09814 9.22049 8.99958 9.22049C8.90102 9.22049 8.80343 9.20106 8.71238 9.16332C8.62133 9.12558 8.53861 9.07026 8.46896 9.00052Z" fill="#646568"/>
</svg>
