<svg width="18" height="10" viewBox="0 0 18 10" fill="none" xmlns="http://www.w3.org/2000/svg">
<path d="M8.46896 0.939417L0.968956 8.43942C0.899275 8.5091 0.844 8.59183 0.806288 8.68287C0.768576 8.77392 0.749165 8.8715 0.749165 8.97004C0.749165 9.06859 0.768576 9.16617 0.806288 9.25722C0.844 9.34826 0.899275 9.43099 0.968956 9.50067C1.03864 9.57035 1.12136 9.62563 1.21241 9.66334C1.30345 9.70105 1.40104 9.72046 1.49958 9.72046C1.59813 9.72046 1.69571 9.70105 1.78675 9.66334C1.8778 9.62563 1.96052 9.57035 2.03021 9.50067L8.99958 2.53035L15.969 9.50067C16.1097 9.6414 16.3006 9.72046 16.4996 9.72046C16.6986 9.72046 16.8895 9.6414 17.0302 9.50067C17.1709 9.35994 17.25 9.16906 17.25 8.97004C17.25 8.77102 17.1709 8.58015 17.0302 8.43942L9.53021 0.939417C9.46055 0.869685 9.37784 0.814365 9.28679 0.776622C9.19574 0.738879 9.09814 0.719453 8.99958 0.719453C8.90102 0.719453 8.80343 0.738879 8.71238 0.776622C8.62133 0.814365 8.53861 0.869685 8.46896 0.939417Z" fill="#646568"/>
</svg>
