<svg width="55" height="54" viewBox="0 0 55 54" fill="none" xmlns="http://www.w3.org/2000/svg">
<rect x="0.5" width="54" height="54" rx="12" fill="white"/>
<rect x="1" y="0.5" width="53" height="53" rx="11.5" stroke="#0A0F0F" stroke-opacity="0.1"/>
<g clip-path="url(#clip0_12_422)">
<path d="M39.4886 27.2244C39.4886 26.2412 39.4069 25.5236 39.2302 24.7795H27.7391V29.2175H34.4841C34.3482 30.3204 33.6138 31.9814 31.9819 33.0975L31.959 33.246L35.5923 35.9962L35.844 36.0208C38.1558 33.9346 39.4886 30.8652 39.4886 27.2244Z" fill="#4285F4"/>
<path d="M27.7391 38.9176C31.0436 38.9176 33.8177 37.8545 35.844 36.0209L31.9819 33.0976C30.9484 33.8018 29.5613 34.2934 27.7391 34.2934C24.5025 34.2934 21.7556 32.2074 20.7764 29.324L20.6328 29.3359L16.8549 32.1927L16.8055 32.3269C18.8181 36.2334 22.9522 38.9176 27.7391 38.9176Z" fill="#34A853"/>
<path d="M20.7763 29.324C20.518 28.58 20.3684 27.7826 20.3684 26.9589C20.3684 26.135 20.518 25.3378 20.7628 24.5937L20.7559 24.4352L16.9306 21.5325L16.8055 21.5906C15.976 23.2117 15.5 25.0322 15.5 26.9589C15.5 28.8855 15.976 30.7059 16.8055 32.327L20.7763 29.324Z" fill="#FBBC05"/>
<path d="M27.7391 19.624C30.0373 19.624 31.5875 20.594 32.4715 21.4046L35.9256 18.1093C33.8042 16.1826 31.0436 15 27.7391 15C22.9522 15 18.8181 17.6841 16.8055 21.5906L20.7628 24.5936C21.7556 21.7102 24.5025 19.624 27.7391 19.624Z" fill="#EB4335"/>
</g>
<defs>
<clipPath id="clip0_12_422">
<rect width="24" height="24" fill="white" transform="translate(15.5 15)"/>
</clipPath>
</defs>
</svg>
